<svg width="36" height="36" viewBox="0 0 36 36" fill="none" xmlns="http://www.w3.org/2000/svg">
<path d="M14.9037 1.19417C16.82 0.0878031 19.1809 0.0878025 21.0972 1.19417L31.0075 6.91591C32.9238 8.02228 34.1043 10.0669 34.1043 12.2797V23.7231C34.1043 25.9359 32.9238 27.9805 31.0075 29.0869L21.0972 34.8086C19.1809 35.915 16.82 35.915 14.9037 34.8087L4.99333 29.0869C3.07704 27.9805 1.89655 25.9359 1.89655 23.7231V12.2797C1.89655 10.0669 3.07704 8.02228 4.99333 6.91591L14.9037 1.19417Z" fill="url(#paint0_linear_5313_68178)"/>
<mask id="mask0_5313_68178" style="mask-type:alpha" maskUnits="userSpaceOnUse" x="1" y="0" width="34" height="36">
<path d="M14.9037 1.19417C16.82 0.0878031 19.1809 0.0878025 21.0972 1.19417L31.0075 6.91591C32.9238 8.02228 34.1043 10.0669 34.1043 12.2797V23.7231C34.1043 25.9359 32.9238 27.9805 31.0075 29.0869L21.0972 34.8086C19.1809 35.915 16.82 35.915 14.9037 34.8087L4.99333 29.0869C3.07704 27.9805 1.89655 25.9359 1.89655 23.7231V12.2797C1.89655 10.0669 3.07704 8.02228 4.99333 6.91591L14.9037 1.19417Z" fill="#83E1E1"/>
</mask>
<g mask="url(#mask0_5313_68178)">
<path d="M7.07182 14.0317L-3.55571 20.6566L-12.7627 26.8438C-13.1052 27.0739 -13.3105 27.4594 -13.3105 27.872V57.2179C-13.3105 57.902 -12.756 58.4566 -12.0718 58.4566H49.2056C49.8897 58.4566 50.4443 57.902 50.4443 57.2179V31.0059C50.4443 30.5815 50.2271 30.1867 49.8687 29.9596L18.8492 10.3006C18.3594 9.99022 17.7198 10.0612 17.3099 10.4714L11.9663 15.819C11.4825 16.3032 10.6977 16.3032 10.2138 15.819L8.60335 14.2073C8.19589 13.7995 7.56101 13.7267 7.07182 14.0317Z" fill="url(#paint1_linear_5313_68178)"/>
<path d="M7.45467 16.875L1.125 21.975H5.97115C6.44588 21.975 8.21291 24.575 9.03709 25.875L10.125 19.775L7.45467 16.875Z" fill="url(#paint2_linear_5313_68178)"/>
<path d="M14.6468 19.125L18 13.5L31.5 21.375L28.408 22.7465L20.8125 22.5L13.5 29.25L16.875 21.375L14.6468 19.125Z" fill="url(#paint3_linear_5313_68178)"/>
</g>
<defs>
<linearGradient id="paint0_linear_5313_68178" x1="18.0004" y1="-0.59375" x2="18.0004" y2="36.5966" gradientUnits="userSpaceOnUse">
<stop stop-color="#22AFFF"/>
<stop offset="1" stop-color="#1D41FF"/>
</linearGradient>
<linearGradient id="paint1_linear_5313_68178" x1="18.5669" y1="9.76953" x2="18.5669" y2="58.4566" gradientUnits="userSpaceOnUse">
<stop stop-color="#1B3573"/>
<stop offset="1" stop-color="#131E39"/>
</linearGradient>
<linearGradient id="paint2_linear_5313_68178" x1="9.5625" y1="18" x2="-3.375" y2="37.125" gradientUnits="userSpaceOnUse">
<stop stop-color="#FCFCFD"/>
<stop offset="1" stop-color="white" stop-opacity="0"/>
</linearGradient>
<linearGradient id="paint3_linear_5313_68178" x1="18.5625" y1="13.5" x2="30.375" y2="56.25" gradientUnits="userSpaceOnUse">
<stop stop-color="white"/>
<stop offset="1" stop-color="#192E5F"/>
</linearGradient>
</defs>
</svg>
